<svg xmlns="http://www.w3.org/2000/svg" xmlns:xlink="http://www.w3.org/1999/xlink" width="1247.774" height="951.902" viewBox="0 0 1247.774 951.902">
  <defs>
    <linearGradient id="linear-gradient" x1="0.5" x2="0.5" y2="1" gradientUnits="objectBoundingBox">
      <stop offset="0" stop-color="#da21fe"/>
      <stop offset="0.184" stop-color="#da21fe"/>
      <stop offset="0.82" stop-color="#0af5a7"/>
      <stop offset="1" stop-color="#0af5a7"/>
    </linearGradient>
  </defs>
  <path id="Path_167" data-name="Path 167" d="M911.488,1134.329c-8.618-22.221-4.431-46.28,7.049-66.7,12.367-21.994,31.832-37.859,54.246-49.075,23.581-11.8,49.38-18.429,74.888-24.691,28.507-7,56.962-14.16,85.29-21.849,116.3-31.569,230.686-69.7,344.138-110.143,66.313-23.639,149.437-45.991,182.781-114.694,16.421-33.835,18.056-70.885,18.306-107.757.223-32.9,1.224-65.869,2.876-98.722,3.7-73.589,11.446-149.458,38.866-218.527,12.461-31.385,29.758-61.533,54.177-85.26,23.986-23.307,59.219-45.292,94.088-41.708,17.489,1.8,31.2,12.192,40.394,26.706,5.621,8.871,9.39,18.5,13.014,28.291q6.506,17.584,13.523,34.995c9.3,22.978,19.76,45.772,34.453,65.9,15.062,20.629,34.208,35.946,55.688,49.564,21.568,13.675,42.613,26.674,60.132,45.485a197.966,197.966,0,0,1,35.216,52.627c16.966,37.151,21.251,78.848,16.683,119.123-4.76,41.97-19.03,82.818-39.114,119.905a376.162,376.162,0,0,1-35.156,53.609c-14.16,17.979-29.859,34.754-44.563,52.293-27.43,32.721-52.922,67.425-67.73,107.766a260.864,260.864,0,0,0-14.7,68.806c-1.832,22.541-.936,45.646,5.827,67.386,6.164,19.818,17.248,37.538,34.3,49.788,4.081,2.932,7.985-3.8,3.943-6.707-40.236-28.91-40.848-87.436-33.754-131.369,7.156-44.313,26.833-83.909,53.451-119.786,26.838-36.176,59.714-67.624,85.061-104.891,24.047-35.357,42.493-74.908,52.9-116.365,9.884-39.361,12.448-80.945,3.811-120.781a207.464,207.464,0,0,0-60.533-106.835c-18.958-17.876-42.123-29.83-63.531-44.412a173.855,173.855,0,0,1-53.219-57.683c-12.836-22.177-22.1-46.132-31.173-70.005-7.033-18.5-13.163-37.848-26.987-52.662-11.676-12.512-27.645-18.8-44.708-18.846-18.838-.048-36.4,6.306-52.828,15.016-29.477,15.632-53.211,39.88-70.986,67.778-39.528,62.039-52.831,138.432-59.95,210.333-3.574,36.1-5.235,72.361-6.2,108.615-.429,16.127-.715,32.257-1.038,48.385-.4,20.089-.071,39.929-3.333,59.849-5.271,32.187-18.329,62.036-42.3,84.764-25.726,24.393-59.394,39.333-92.2,51.777-54.017,20.49-108.86,39.144-163.589,57.653-58.12,19.654-116.569,38.371-175.47,55.584q-43.622,12.747-87.579,24.324c-27.656,7.261-55.588,13.515-83.17,21.036-47.15,12.855-95.718,34.443-116.11,81.888-8.495,19.764-10.587,41.981-2.712,62.285,1.79,4.615,9.347,2.61,7.533-2.065Z" transform="translate(-899.041 -187.106)" fill="url(#linear-gradient)"/>
</svg>
