<svg xmlns="http://www.w3.org/2000/svg" width="18.833" height="16.252" viewBox="0 0 18.833 16.252">
  <g id="Group_105" data-name="Group 105" transform="translate(-142.134 -190.611)">
    <path id="Path_159" data-name="Path 159" d="M147.676,190.611h-1.689a3.9,3.9,0,0,0-3.853,3.945v2.238h1.286a.119.119,0,0,1,0-.042v-2.194a2.609,2.609,0,0,1,2.566-2.645h1.689a2.609,2.609,0,0,1,2.566,2.645v2.2a.118.118,0,0,1,0,.029h1.286v-2.23A3.9,3.9,0,0,0,147.676,190.611Z" transform="translate(0 0)" fill="#70ec9d"/>
    <path id="Path_160" data-name="Path 160" d="M484.547,490.535l-9.4.008a1.554,1.554,0,0,0-1.285,1.513v7.024a1.561,1.561,0,0,0,1.573,1.539H484.3a1.561,1.561,0,0,0,1.573-1.539v-7.024A1.556,1.556,0,0,0,484.547,490.535Zm-3.944,5.251v1.754a.528.528,0,0,1-.532.52h-.133a.528.528,0,0,1-.532-.52v-1.728a1.552,1.552,0,0,1-1.019-1.448,1.585,1.585,0,0,1,3.169,0A1.55,1.55,0,0,1,480.6,495.786Z" transform="translate(-324.91 -293.756)" fill="#70ec9d"/>
  </g>
</svg>
